<svg width="16" height="17" viewBox="0 0 16 17" fill="none" xmlns="http://www.w3.org/2000/svg">
<path fill-rule="evenodd" clip-rule="evenodd" d="M3 2.69104H13C13.5523 2.69104 14 3.13876 14 3.69104V13.6927C14 14.245 13.5523 14.6927 13 14.6927H3C2.44772 14.6927 2 14.245 2 13.6927V3.69104C2 3.13876 2.44771 2.69104 3 2.69104ZM0 3.69104C0 2.03418 1.34315 0.69104 3 0.69104H13C14.6569 0.69104 16 2.03419 16 3.69104V13.6927C16 15.3495 14.6569 16.6927 13 16.6927H3C1.34315 16.6927 0 15.3495 0 13.6927V3.69104ZM11.5898 5.10148C11.9804 5.49199 11.9804 6.12515 11.5899 6.5157L9.41401 8.69181L11.5899 10.8679C11.9804 11.2585 11.9804 11.8916 11.5898 12.2821C11.1993 12.6726 10.5661 12.6726 10.1756 12.2821L7.99987 10.1061L5.82413 12.2821C5.43362 12.6726 4.80046 12.6726 4.40991 12.2821C4.01937 11.8916 4.01934 11.2585 4.40984 10.8679L6.58573 8.69181L4.40985 6.5157C4.01934 6.12515 4.01937 5.49199 4.40992 5.10148C4.80046 4.71098 5.43363 4.71101 5.82413 5.10156L7.99987 7.27752L10.1756 5.10156C10.5661 4.71101 11.1993 4.71098 11.5898 5.10148Z" fill="#555555"/>
</svg>
